<?xml version="1.0" encoding="UTF-8"?>
<svg id="Layer_2" data-name="Layer 2" xmlns="http://www.w3.org/2000/svg" xmlns:xlink="http://www.w3.org/1999/xlink" viewBox="0 0 1316.27 251.8">
  <defs>
    <style>
      .cls-1 {
        fill: url(#linear-gradient);
      }

      .cls-1, .cls-2, .cls-3, .cls-4 {
        stroke-width: 0px;
      }

      .cls-2 {
        fill: url(#linear-gradient-2);
      }

      .cls-3 {
        fill: url(#linear-gradient-3);
      }

      .cls-4 {
        fill: #fff;
      }
    </style>
    <linearGradient id="linear-gradient" x1="101.26" y1="-43.03" x2="101.26" y2="387.64" gradientUnits="userSpaceOnUse">
      <stop offset="0" stop-color="#a088f2"/>
      <stop offset="1" stop-color="#524ffb"/>
    </linearGradient>
    <linearGradient id="linear-gradient-2" x1="155.35" y1="-43.03" x2="155.35" y2="387.64" xlink:href="#linear-gradient"/>
    <linearGradient id="linear-gradient-3" x1="47.17" y1="-43.03" x2="47.17" y2="387.64" xlink:href="#linear-gradient"/>
  </defs>
  <g id="Layer_1-2" data-name="Layer 1">
    <g>
      <g>
        <path class="cls-1" d="M49.35,152.96l10.35-8.69c0,12.78,10.36,23.14,23.14,23.14h103.7l15.98-27.68h-55.12l23.43-19.66c31.27-26.24,12.72-77.21-28.1-77.21h-6.87V15.98L108.18,0v70.53h34.61c14.95,0,21.76,18.68,10.3,28.29l-10.36,8.69h0c0-12.78-10.36-23.14-23.14-23.14H15.98L0,112.05h55.03l-23.43,19.66c-31.27,26.24-12.71,77.21,28.1,77.21h6.96v26.9l27.68,15.98v-70.55h-34.69c-14.96,0-21.76-18.68-10.3-28.29ZM115.06,112.05v27.68h-27.68v-27.68h27.68Z"/>
        <polygon class="cls-2" points="135.86 181.26 108.18 181.26 108.18 208.92 108.18 235.82 135.86 251.8 135.86 208.92 186.54 208.92 202.52 181.24 135.86 181.24 135.86 181.26"/>
        <polygon class="cls-3" points="94.34 70.53 94.34 42.85 94.34 15.98 66.66 0 66.66 42.85 15.98 42.85 0 70.53 66.66 70.53 94.34 70.53"/>
      </g>
      <g>
        <path class="cls-4" d="M254.24,165.14l63.07-76.97h-60.33v-21.76h89.39v20.84l-63.07,77.15h64.9v21.57h-93.97v-20.84Z"/>
        <path class="cls-4" d="M357.72,140.82c0-27.42,20.11-47.53,48.63-47.53s48.63,20.11,48.63,47.53-20.11,47.53-48.63,47.53-48.63-20.11-48.63-47.53ZM432.85,140.82c0-15.91-10.6-27.24-26.51-27.24s-26.69,11.33-26.69,27.24,10.79,27.24,26.69,27.24,26.51-11.33,26.51-27.24Z"/>
        <path class="cls-4" d="M461.02,139.91c0-30.9,23.03-46.62,44.97-46.62,12.98,0,23.77,5.48,30.17,15.54v-52.65h21.75v83.91c0,29.25-19.74,48.26-48.08,48.26s-48.81-19.74-48.81-48.44ZM536.15,140.82c0-15.91-10.6-27.24-26.51-27.24s-26.69,11.33-26.69,27.24,10.79,27.24,26.69,27.24,26.51-11.33,26.51-27.24Z"/>
        <path class="cls-4" d="M570.89,69.53c0-8.41,6.03-14.63,14.44-14.63s14.44,6.22,14.44,14.63-6.03,14.44-14.44,14.44-14.44-6.03-14.44-14.44ZM574.37,95.67h21.75v90.31h-21.75v-90.31Z"/>
        <path class="cls-4" d="M608.92,141.74c0-28.7,20.11-48.44,48.81-48.44s48.08,19.19,48.08,48.26v44.42h-19.93v-17.73c-5.49,13.34-17.73,20.11-31.99,20.11-21.94,0-44.97-15.72-44.97-46.62ZM684.06,140.82c0-15.91-10.6-27.24-26.51-27.24s-26.69,11.33-26.69,27.24,10.79,27.24,26.69,27.24,26.51-11.33,26.51-27.24Z"/>
        <path class="cls-4" d="M715.51,140.82c0-27.42,20.11-47.53,48.63-47.53,24.5,0,42.41,14.81,46.8,36.2h-21.94c-3.84-9.69-12.98-15.91-24.86-15.91-15.91,0-26.69,11.33-26.69,27.24s10.79,27.24,26.69,27.24c11.88,0,21.02-6.22,24.86-15.91h21.94c-4.39,21.39-22.3,36.2-46.8,36.2-28.52,0-48.63-20.11-48.63-47.53Z"/>
        <path class="cls-4" d="M861.77,151.43h22.85c.18,9.51,7.31,15.91,21.57,15.91s21.57-6.4,21.57-15.91c0-10.42-11.15-12.43-24.13-14.81-18.1-3.29-39.49-7.13-39.49-34.92,0-22.12,16.82-37.66,42.23-37.66s41.32,14.81,42.23,36.74h-22.12c-.18-9.14-6.95-15.72-19.93-15.72s-19.74,7.13-19.74,15.91c0,10.42,11.15,12.43,24.13,14.81,18.1,3.29,39.67,7.13,39.67,34.92,0,23.22-17.73,37.66-44.42,37.66s-43.87-14.08-44.42-36.93Z"/>
        <path class="cls-4" d="M961.23,147.22v-51.55h21.75v51.55c0,14.81,7.68,20.84,18.28,20.84s18.28-6.22,18.28-20.84v-51.55h21.76v51.55c0,14.62,7.68,20.84,18.1,20.84s18.28-6.03,18.28-20.84v-51.55h21.76v51.55c0,28.33-16.45,41.13-37.84,41.13-13.71,0-24.86-5.67-31.26-16.27-6.58,10.6-17.73,16.27-31.26,16.27-21.39,0-37.84-12.8-37.84-41.13Z"/>
        <path class="cls-4" d="M1109.13,141.74c0-28.7,20.11-48.44,48.81-48.44s48.08,19.19,48.08,48.26v44.42h-19.93v-17.73c-5.49,13.34-17.73,20.11-31.99,20.11-21.94,0-44.97-15.72-44.97-46.62ZM1184.27,140.82c0-15.91-10.6-27.24-26.51-27.24s-26.69,11.33-26.69,27.24,10.79,27.24,26.69,27.24,26.51-11.33,26.51-27.24Z"/>
        <path class="cls-4" d="M1219.38,141.56c0-29.25,19.74-48.26,48.08-48.26s48.81,19.74,48.81,48.44c0,30.89-23.03,46.62-44.97,46.62-12.98,0-23.77-5.48-30.17-15.54v51.73h-21.75v-83ZM1294.33,140.82c0-15.91-10.79-27.24-26.69-27.24s-26.51,11.33-26.51,27.24,10.6,27.24,26.51,27.24,26.69-11.33,26.69-27.24Z"/>
      </g>
    </g>
  </g>
</svg>